<?xml version="1.0" encoding="utf-8"?>
<!-- Generator: Adobe Illustrator 18.1.1, SVG Export Plug-In . SVG Version: 6.00 Build 0)  -->
<svg version="1.1" id="Layer_1" xmlns="http://www.w3.org/2000/svg" xmlns:xlink="http://www.w3.org/1999/xlink" x="0px" y="0px"
	 viewBox="0 0 985 85" enable-background="new 0 0 985 85" xml:space="preserve">
<rect x="8" fill="#38429A" stroke="#000000" stroke-miterlimit="10" width="23" height="85"/>
<polygon fill="#107B3E" stroke="#000000" stroke-miterlimit="10" points="49,19.4 42.1,16.1 35.6,19.9 36.6,12.4 31,7.3 38.5,5.9 
	41.6,-1 45.2,5.7 52.7,6.5 47.4,12 "/>
<polygon fill="#107B3E" stroke="#000000" stroke-miterlimit="10" points="75.8,19.4 69,16.1 62.4,19.9 63.5,12.4 57.9,7.3 65.3,5.9 
	68.4,-1 72,5.7 79.5,6.5 74.3,12 "/>
<polygon fill="#107B3E" stroke="#000000" stroke-miterlimit="10" points="102,19.4 95.1,16.1 88.6,19.9 89.6,12.4 84,7.3 91.5,5.9 
	94.6,-1 98.2,5.7 105.7,6.5 100.4,12 "/>
<text transform="matrix(1 0 0 1 36 42.5)"><tspan x="0" y="0" fill="#F9ED23" font-family="'Phosphate-Inline'" font-size="24">THE</tspan><tspan x="0" y="28.8" fill="#F9ED23" font-family="'Phosphate-Inline'" font-size="24">GOAT</tspan></text>
<text transform="matrix(1 0 0 1 533 74.5)" font-family="'IowanOldStyle-Roman'" font-size="14">Where we determine once and for all who is the Greatest of All Time!!!</text>
</svg>
