<?xml version="1.0" encoding="utf-8"?>
<!-- Generator: Adobe Illustrator 19.0.0, SVG Export Plug-In . SVG Version: 6.00 Build 0)  -->
<svg version="1.1" id="Layer_1" xmlns="http://www.w3.org/2000/svg" xmlns:xlink="http://www.w3.org/1999/xlink" x="0px" y="0px"
	 viewBox="-1821 1794 985 85" enable-background="new -1821 1794 985 85" xml:space="preserve">
<rect x="-1813" y="1794" fill="#38429A" stroke="#000000" stroke-miterlimit="10" width="23" height="85"/>
<polygon fill="#107B3E" stroke="#000000" stroke-miterlimit="10" points="-1772,1813.4 -1778.9,1810.1 -1785.4,1813.9 
	-1784.4,1806.4 -1790,1801.3 -1782.5,1799.9 -1779.4,1793 -1775.8,1799.7 -1768.3,1800.5 -1773.6,1806 "/>
<polygon fill="#107B3E" stroke="#000000" stroke-miterlimit="10" points="-1745.2,1813.4 -1752,1810.1 -1758.6,1813.9 
	-1757.5,1806.4 -1763.1,1801.3 -1755.7,1799.9 -1752.6,1793 -1749,1799.7 -1741.5,1800.5 -1746.7,1806 "/>
<polygon fill="#107B3E" stroke="#000000" stroke-miterlimit="10" points="-1719,1813.4 -1725.9,1810.1 -1732.4,1813.9 
	-1731.4,1806.4 -1737,1801.3 -1729.5,1799.9 -1726.4,1793 -1722.8,1799.7 -1715.3,1800.5 -1720.6,1806 "/>
<text transform="matrix(1 0 0 1 -1785 1836.5)" fill="#F9ED23" font-family="'Phosphate-Inline'" font-size="24px">THE</text>
<text transform="matrix(1 0 0 1 -1785 1865.3)" fill="#F9ED23" font-family="'Phosphate-Inline'" font-size="24px">GOAT</text>
<text transform="matrix(1 0 0 1 -1288 1868.5)" fill="#FFFFFF" font-family="'BrushScriptMT'" font-size="19px">Where we determine once and for all who is the Greatest of All Time!!!</text>
</svg>
