<?xml version="1.0" encoding="utf-8"?>
<!-- Generator: Adobe Illustrator 19.0.0, SVG Export Plug-In . SVG Version: 6.00 Build 0)  -->
<svg version="1.1" id="Layer_1" xmlns="http://www.w3.org/2000/svg" xmlns:xlink="http://www.w3.org/1999/xlink" x="0px" y="0px"
	 viewBox="0 0 4628 3672" enable-background="new 0 0 4628 3672" xml:space="preserve">
<g id="WsYdes.tif">
	
		<image overflow="visible" width="984" height="918" id="Layer_0_1_" xlink:href="16CB7C0146A7BEB1.png"  transform="matrix(0.7901 0 0 0.7821 76.4706 0)">
	</image>
</g>
<g id="Xya1uF.tif">
	
		<image overflow="visible" width="200" height="200" id="Layer_0_3_" xlink:href="16CB7C0146A7BEB3.png"  transform="matrix(4.1626 0 0 3.9715 3795.4707 7.7353)">
	</image>
</g>
<g id="nNk9ha.tif">
	
		<image overflow="visible" width="501" height="720" id="Layer_0_4_" xlink:href="16CB7C0146A7BEB6.png"  transform="matrix(1.2567 0 0 1.1048 3099.2942 -0.5882)">
	</image>
</g>
<g id="_x30_CZRZO.tif">
	
		<image overflow="visible" width="750" height="755" id="Layer_0_5_" xlink:href="16CB7C0146A7BEB7.png"  transform="matrix(1.3961 0 0 1.2778 976.4706 0)">
	</image>
</g>
<g id="_x34_BiYcm.tif">
	
		<image overflow="visible" width="600" height="600" id="Layer_0_6_" xlink:href="16CB7C0146A7BEB2.png"  transform="matrix(1.803 0 0 1.9487 0 802.0294)">
	</image>
</g>
<g id="uP2Rl0.tif">
	
		<image overflow="visible" width="426" height="416" id="Layer_0_7_" xlink:href="16CB7C0146A7BEBD.png"  transform="matrix(2.0851 0 0 2.0255 3664.1765 946.2794)">
	</image>
</g>
<g id="ipTZzW.tif">
	
		<image overflow="visible" width="760" height="765" id="Layer_0_8_" xlink:href="16CB7C0146A7BEBE.png"  transform="matrix(1 0 0 1 110.6912 1836)">
	</image>
</g>
<g id="_x30_zBNCY.tif">
	
		<image overflow="visible" width="835" height="1024" id="Layer_0_9_" xlink:href="16CB7C0146A7BEBF.png"  transform="matrix(0.9577 0 0 0.7471 3752.7058 1836)">
	</image>
</g>
<g id="_x30_nywco.tif">
	
		<image overflow="visible" width="286" height="187" id="Layer_0_10_" xlink:href="16CB7C0146A7BEB4.png"  transform="matrix(3.1849 0 0 4.8757 3664.1765 2683)">
	</image>
</g>
<g id="Tvjp1i.tif">
	
		<image overflow="visible" width="280" height="280" id="Layer_0_11_" xlink:href="4B68EC2F363E8FAA.png"  transform="matrix(3.8745 0 0 3.6718 32.2647 2601)">
	</image>
</g>
<g id="Cf8LT6.tif">
	
		<image overflow="visible" width="240" height="184" id="Layer_0_2_" xlink:href="4B68EC2F363E8FAD.png"  transform="matrix(3.4804 0 0 3.8363 2088.2354 2762.1177)">
	</image>
</g>
<g id="dFyJMF.tif">
	
		<image overflow="visible" width="1000" height="1528" id="Layer_0_12_" xlink:href="4B68EC2F363E8FAE.png"  transform="matrix(0.6559 0 0 0.5775 2902.353 2712.4119)">
	</image>
</g>
<g id="RMlpRB.tif">
	
		<image overflow="visible" width="544" height="545" id="Layer_0_13_" xlink:href="4B68EC2F363E8FAC.png"  transform="matrix(1.5974 0 0 1.5801 1065.5 2723)">
	</image>
</g>
<g id="PAcE2l.tif">
	
		<image overflow="visible" width="225" height="181" id="Layer_0_14_" xlink:href="4B68EC2F363E8FAB.png"  transform="matrix(4.0133 0 0 4.4147 1967.0588 -2.3824)">
	</image>
</g>
</svg>
